/vscmnt/brussel_pixiu_data/_data_brussel/112/vsc11236/PredSimResults/SUBJ07mtu3D/weighted-trackIG/worker_03.mot
version=1
nRows=4
nColumns=50
inDegrees=yes
endheader
                time	         pelvis_tilt	         pelvis_list	     pelvis_rotation	           pelvis_tx	           pelvis_ty	           pelvis_tz	       hip_flexion_r	     hip_adduction_r	      hip_rotation_r	        knee_angle_r	       ankle_angle_r	         mtp_angle_r	       hip_flexion_l	     hip_adduction_l	      hip_rotation_l	        knee_angle_l	       ankle_angle_l	         mtp_angle_l	    lumbar_extension	      lumbar_bending	     lumbar_rotation	 ercspn_r/activation	 intobl_r/activation	 extobl_r/activation	    abd_r/activation	    add_r/activation	hamstrings_r/activation	bifemsh_r/activation	glut_max_r/activation	iliopsoas_r/activation	rect_fem_r/activation	  vasti_r/activation	gastroc_r/activation	 soleus_r/activation	tib_ant_r/activation	 ercspn_l/activation	 intobl_l/activation	 extobl_l/activation	    abd_l/activation	    add_l/activation	hamstrings_l/activation	bifemsh_l/activation	glut_max_l/activation	iliopsoas_l/activation	rect_fem_l/activation	  vasti_l/activation	gastroc_l/activation	 soleus_l/activation	tib_ant_l/activation	
          1.13436385	         -6.35740641	         -3.89934063	         10.39573064	          1.40661118	          0.84341816	         -0.01511525	         31.45173533	         -0.87245514	         -9.16787477	         -3.10077115	          7.32520022	          0.24874321	        -13.73981362	         -4.72258164	          5.47060241	         -5.41024860	          8.43141910	         27.83370691	         -6.67989958	          1.78662617	         -3.44096972	          0.10229405	          0.19005879	          0.03079853	          0.01157969	          0.11938270	          0.09079059	          0.21938475	          0.01000005	          0.11296321	          0.01000065	          0.01000007	          0.03167748	          0.01228478	          0.27381419	          0.03346235	          0.01000007	          0.01000007	          0.03992080	          0.04388592	          0.02800879	          0.15688119	          0.03360702	          0.42560789	          0.01189099	          0.01134819	          0.31801542	          0.27671983	          0.02239547	
          1.14570749	         -6.43230507	         -3.78093315	         10.36045732	          1.42308663	          0.84148535	         -0.01491651	         31.76146405	         -0.73035057	         -8.49082946	         -5.21780929	          7.02955686	          0.25163245	        -13.87639591	         -4.63735556	          4.98801816	         -7.13020495	          7.72975891	         29.63169492	         -6.49178947	          2.25672704	         -3.51181655	          0.08602935	          0.16376716	          0.02590158	          0.01000004	          0.19683409	          0.07635518	          0.18450279	          0.06732223	          0.09500208	          0.01000100	          0.01000014	          0.02819777	          0.01413958	          0.27071078	          0.08764031	          0.01000012	          0.01000070	          0.03357340	          0.08992443	          0.02355560	          0.13193716	          0.02826351	          0.44579387	          0.01000141	          0.01086819	          0.26745154	          0.25852599	          0.01883459	
          1.15705113	         -6.48829945	         -3.66242421	         10.26380650	          1.43993923	          0.83972299	         -0.01469219	         31.86664676	         -0.61020455	         -7.75014818	         -7.32524173	          6.73113566	          0.23290882	        -13.85352160	         -4.53147937	          4.44674907	         -9.22834732	          6.92323108	         31.38024973	         -6.28038598	          2.74936496	         -3.55675564	          0.07235081	          0.15676376	          0.02178324	          0.04951427	          0.18337941	          0.07364953	          0.15516718	          0.09905118	          0.07989676	          0.01000024	          0.01000006	          0.02371438	          0.01189145	          0.31454045	          0.11125831	          0.01000006	          0.01000056	          0.02823523	          0.09854900	          0.02360408	          0.11095922	          0.02376962	          0.42853901	          0.01000056	          0.01000089	          0.22492676	          0.23782800	          0.01583989	
          1.16839477	         -6.52856295	         -3.54189161	         10.10262887	          1.45693707	          0.83829834	         -0.01437346	         31.76766537	         -0.46672328	         -7.06268265	         -9.08864878	          6.33480015	          0.22161842	        -13.58411096	         -4.40563109	          3.85131888	        -11.81310782	          5.96997630	         33.00700018	         -6.07155651	          3.24995130	         -3.57623541	          0.08800362	          0.13183839	          0.01831972	          0.11324826	          0.20566797	          0.06498186	          0.13049582	          0.13375738	          0.06719319	          0.01000029	          0.01000006	          0.01994383	          0.01000075	          0.34126115	          0.14885972	          0.01000009	          0.01000024	          0.02374583	          0.10515372	          0.01985164	          0.09331680	          0.01999026	          0.41041142	          0.01000083	          0.01000216	          0.18916341	          0.20001363	          0.01332136	
